<mxfile host="app.diagrams.net" modified="2024-01-06T03:53:34.612Z" agent="Mozilla/5.0 (Windows NT 10.0; Win64; x64) AppleWebKit/537.36 (KHTML, like Gecko) Chrome/120.0.0.0 Safari/537.36" etag="tfVo1PzoRKws4M6_FW5T" version="22.1.16" type="device">
  <diagram name="第 1 页" id="uMK9Y-YYljSMYM9NbmiG">
    <mxGraphModel dx="1034" dy="459" grid="1" gridSize="10" guides="1" tooltips="1" connect="1" arrows="1" fold="1" page="1" pageScale="1" pageWidth="827" pageHeight="1169" math="0" shadow="0">
      <root>
        <mxCell id="0" />
        <mxCell id="1" parent="0" />
        <mxCell id="XNDSgbZYfwYweAJYHDhO-11" value="Actor" style="shape=umlActor;verticalLabelPosition=bottom;verticalAlign=top;html=1;outlineConnect=0;" vertex="1" parent="1">
          <mxGeometry x="150" y="230" width="30" height="60" as="geometry" />
        </mxCell>
        <mxCell id="XNDSgbZYfwYweAJYHDhO-14" value="登入系統" style="ellipse;whiteSpace=wrap;html=1;" vertex="1" parent="1">
          <mxGeometry x="290" y="40" width="120" height="80" as="geometry" />
        </mxCell>
        <mxCell id="XNDSgbZYfwYweAJYHDhO-17" value="付款" style="ellipse;whiteSpace=wrap;html=1;" vertex="1" parent="1">
          <mxGeometry x="500" y="460" width="120" height="80" as="geometry" />
        </mxCell>
        <mxCell id="XNDSgbZYfwYweAJYHDhO-18" value="訂單" style="ellipse;whiteSpace=wrap;html=1;" vertex="1" parent="1">
          <mxGeometry x="510" y="300" width="120" height="80" as="geometry" />
        </mxCell>
        <mxCell id="XNDSgbZYfwYweAJYHDhO-19" value="餐飲" style="ellipse;whiteSpace=wrap;html=1;" vertex="1" parent="1">
          <mxGeometry x="510" y="130" width="120" height="80" as="geometry" />
        </mxCell>
        <mxCell id="XNDSgbZYfwYweAJYHDhO-20" value="店鋪" style="ellipse;whiteSpace=wrap;html=1;" vertex="1" parent="1">
          <mxGeometry x="520" width="120" height="80" as="geometry" />
        </mxCell>
        <mxCell id="XNDSgbZYfwYweAJYHDhO-21" value="訂餐" style="ellipse;whiteSpace=wrap;html=1;" vertex="1" parent="1">
          <mxGeometry x="280" y="190" width="120" height="80" as="geometry" />
        </mxCell>
        <mxCell id="XNDSgbZYfwYweAJYHDhO-22" value="評價" style="ellipse;whiteSpace=wrap;html=1;" vertex="1" parent="1">
          <mxGeometry x="280" y="370" width="120" height="80" as="geometry" />
        </mxCell>
        <mxCell id="XNDSgbZYfwYweAJYHDhO-37" value="" style="endArrow=none;html=1;rounded=0;exitX=0.5;exitY=0.5;exitDx=0;exitDy=0;exitPerimeter=0;entryX=0;entryY=0.5;entryDx=0;entryDy=0;" edge="1" parent="1" source="XNDSgbZYfwYweAJYHDhO-11" target="XNDSgbZYfwYweAJYHDhO-21">
          <mxGeometry width="50" height="50" relative="1" as="geometry">
            <mxPoint x="390" y="270" as="sourcePoint" />
            <mxPoint x="440" y="220" as="targetPoint" />
          </mxGeometry>
        </mxCell>
        <mxCell id="XNDSgbZYfwYweAJYHDhO-39" value="" style="endArrow=none;html=1;rounded=0;entryX=-0.011;entryY=0.321;entryDx=0;entryDy=0;entryPerimeter=0;exitX=0.667;exitY=0.628;exitDx=0;exitDy=0;exitPerimeter=0;" edge="1" parent="1" source="XNDSgbZYfwYweAJYHDhO-11" target="XNDSgbZYfwYweAJYHDhO-22">
          <mxGeometry width="50" height="50" relative="1" as="geometry">
            <mxPoint x="180" y="260" as="sourcePoint" />
            <mxPoint x="440" y="220" as="targetPoint" />
          </mxGeometry>
        </mxCell>
        <mxCell id="XNDSgbZYfwYweAJYHDhO-40" value="" style="endArrow=none;html=1;rounded=0;entryX=0;entryY=0.5;entryDx=0;entryDy=0;" edge="1" parent="1" source="XNDSgbZYfwYweAJYHDhO-11" target="XNDSgbZYfwYweAJYHDhO-14">
          <mxGeometry width="50" height="50" relative="1" as="geometry">
            <mxPoint x="390" y="270" as="sourcePoint" />
            <mxPoint x="440" y="220" as="targetPoint" />
          </mxGeometry>
        </mxCell>
        <mxCell id="XNDSgbZYfwYweAJYHDhO-43" value="" style="endArrow=none;dashed=1;html=1;rounded=0;exitX=1;exitY=0;exitDx=0;exitDy=0;entryX=0;entryY=0.5;entryDx=0;entryDy=0;" edge="1" parent="1" source="XNDSgbZYfwYweAJYHDhO-21" target="XNDSgbZYfwYweAJYHDhO-20">
          <mxGeometry width="50" height="50" relative="1" as="geometry">
            <mxPoint x="390" y="270" as="sourcePoint" />
            <mxPoint x="440" y="220" as="targetPoint" />
          </mxGeometry>
        </mxCell>
        <mxCell id="XNDSgbZYfwYweAJYHDhO-44" value="" style="endArrow=none;dashed=1;html=1;rounded=0;exitX=1;exitY=0.5;exitDx=0;exitDy=0;entryX=0;entryY=0.5;entryDx=0;entryDy=0;" edge="1" parent="1" source="XNDSgbZYfwYweAJYHDhO-21" target="XNDSgbZYfwYweAJYHDhO-19">
          <mxGeometry width="50" height="50" relative="1" as="geometry">
            <mxPoint x="390" y="270" as="sourcePoint" />
            <mxPoint x="440" y="220" as="targetPoint" />
          </mxGeometry>
        </mxCell>
        <mxCell id="XNDSgbZYfwYweAJYHDhO-45" value="" style="endArrow=none;dashed=1;html=1;rounded=0;exitX=1;exitY=1;exitDx=0;exitDy=0;entryX=0;entryY=0.5;entryDx=0;entryDy=0;" edge="1" parent="1" source="XNDSgbZYfwYweAJYHDhO-21" target="XNDSgbZYfwYweAJYHDhO-18">
          <mxGeometry width="50" height="50" relative="1" as="geometry">
            <mxPoint x="390" y="270" as="sourcePoint" />
            <mxPoint x="440" y="220" as="targetPoint" />
          </mxGeometry>
        </mxCell>
        <mxCell id="XNDSgbZYfwYweAJYHDhO-46" value="" style="endArrow=none;dashed=1;html=1;rounded=0;exitX=0.567;exitY=1.029;exitDx=0;exitDy=0;exitPerimeter=0;entryX=0;entryY=0.375;entryDx=0;entryDy=0;entryPerimeter=0;" edge="1" parent="1" source="XNDSgbZYfwYweAJYHDhO-21" target="XNDSgbZYfwYweAJYHDhO-17">
          <mxGeometry width="50" height="50" relative="1" as="geometry">
            <mxPoint x="390" y="470" as="sourcePoint" />
            <mxPoint x="440" y="420" as="targetPoint" />
          </mxGeometry>
        </mxCell>
      </root>
    </mxGraphModel>
  </diagram>
</mxfile>
